<?xml version="1.0" encoding="UTF-8"?>
<svg xmlns="http://www.w3.org/2000/svg" xmlns:xlink="http://www.w3.org/1999/xlink" width="200px" height="39px" viewBox="0 0 202 39" version="1.1">
<g id="surface1">
<path style=" stroke:none;fill-rule:nonzero;fill:rgb(63.529412%,44.705882%,96.862745%);fill-opacity:1;" d="M 11.210938 1.585938 C 12.796875 1.574219 16.214844 1.574219 16.214844 1.574219 C 16.214844 1.574219 16.089844 1.933594 16.019531 2.164062 C 15.226562 5.917969 15.835938 9.652344 17.246094 13.171875 C 16.261719 12.851562 15.445312 12.082031 14.496094 11.738281 C 12.476562 8.816406 11.167969 5.15625 11.210938 1.585938 Z M 11.210938 1.585938 "/>
<path style=" stroke:none;fill-rule:nonzero;fill:rgb(11.372549%,84.313725%,98.039216%);fill-opacity:1;" d="M 22.109375 1.578125 C 24.664062 1.574219 27.355469 1.570312 29.929688 1.578125 C 29.800781 1.753906 29.628906 1.941406 29.472656 2.101562 C 26.246094 5.523438 24.460938 10.238281 24.59375 14.941406 C 23.265625 14.910156 21.878906 14.714844 20.585938 14.398438 C 19.515625 10.125 20.128906 5.503906 22.109375 1.578125 Z M 22.109375 1.578125 "/>
<path style=" stroke:none;fill-rule:nonzero;fill:rgb(11.372549%,84.313725%,98.039216%);fill-opacity:1;" d="M 101.789062 8.054688 C 102.808594 7.679688 104.007812 7.921875 104.683594 8.796875 C 105.441406 9.75 105.339844 11.253906 104.417969 12.066406 C 103.320312 13.117188 101.3125 12.851562 100.601562 11.476562 C 99.917969 10.238281 100.460938 8.578125 101.789062 8.054688 Z M 101.789062 8.054688 "/>
<path style=" stroke:none;fill-rule:nonzero;fill:rgb(100%,100%,100%);fill-opacity:1;" d="M 59.816406 11.507812 C 59.121094 12.453125 58.394531 13.375 57.667969 14.289062 L 57.523438 14.28125 C 56.523438 13.238281 55.199219 12.539062 53.765625 12.324219 C 52.882812 12.167969 51.851562 12.285156 51.085938 12.777344 C 50.277344 13.289062 49.925781 14.320312 50.277344 15.214844 C 50.488281 15.777344 51.039062 16.222656 51.535156 16.53125 C 53.449219 17.566406 55.652344 18.261719 57.515625 19.390625 C 58.109375 19.804688 58.710938 20.230469 59.132812 20.824219 C 60.375 22.371094 60.511719 24.613281 59.847656 26.429688 C 59.210938 28.105469 57.839844 29.332031 56.207031 30.003906 C 52.144531 31.578125 47.039062 30.398438 44.621094 26.613281 L 44.660156 26.453125 C 45.449219 25.574219 46.207031 24.65625 47.007812 23.789062 C 48.089844 25.402344 49.722656 26.566406 51.664062 26.835938 C 52.839844 27.015625 54.292969 26.871094 55.148438 25.949219 C 55.761719 25.382812 56.003906 24.410156 55.632812 23.644531 C 55.191406 22.675781 54.179688 22.210938 53.269531 21.789062 C 51.175781 20.902344 48.851562 20.207031 47.261719 18.480469 C 45.660156 16.804688 45.417969 14.101562 46.40625 12.058594 C 47.214844 10.390625 48.785156 9.289062 50.539062 8.800781 C 53.785156 7.96875 57.652344 8.855469 59.816406 11.507812 Z M 59.816406 11.507812 "/>
<path style=" stroke:none;fill-rule:nonzero;fill:rgb(100%,100%,100%);fill-opacity:1;" d="M 144.386719 8.988281 C 145.632812 8.984375 146.875 8.984375 148.121094 8.992188 C 148.21875 10.714844 148.128906 12.753906 148.164062 14.519531 C 149.925781 14.550781 151.691406 14.511719 153.453125 14.539062 C 153.464844 15.621094 153.464844 16.707031 153.453125 17.789062 C 151.691406 17.816406 149.925781 17.777344 148.164062 17.808594 C 148.15625 20.0625 148.160156 22.316406 148.160156 24.570312 C 148.207031 25.460938 148.398438 26.457031 149.246094 26.933594 C 150.1875 27.398438 151.457031 27.183594 152.371094 26.734375 C 152.617188 26.640625 152.882812 26.414062 153.148438 26.449219 C 153.460938 27.402344 154.082031 28.496094 154.257812 29.4375 C 153.160156 30.125 151.949219 30.523438 150.664062 30.652344 C 149.046875 30.785156 147.421875 30.652344 146.125 29.574219 C 144.820312 28.507812 144.390625 26.640625 144.320312 25.03125 C 144.3125 22.625 144.324219 20.214844 144.316406 17.808594 C 143.449219 17.777344 142.574219 17.816406 141.703125 17.789062 C 141.695312 16.703125 141.695312 15.621094 141.703125 14.539062 C 142.59375 14.515625 143.480469 14.546875 144.371094 14.523438 C 144.394531 12.679688 144.355469 10.835938 144.386719 8.988281 Z M 144.386719 8.988281 "/>
<path style=" stroke:none;fill-rule:nonzero;fill:rgb(100%,100%,100%);fill-opacity:1;" d="M 159.113281 8.914062 C 159.839844 8.816406 160.652344 8.898438 161.398438 8.875 C 163.988281 12.992188 166.539062 17.167969 169.085938 21.3125 C 171.613281 17.167969 174.171875 12.996094 176.734375 8.875 C 177.515625 8.867188 178.296875 8.875 179.078125 8.875 C 179.085938 16.023438 179.097656 23.1875 179.074219 30.335938 C 177.894531 30.34375 176.714844 30.339844 175.535156 30.335938 L 175.472656 30.222656 C 175.480469 26.074219 175.460938 21.921875 175.484375 17.777344 C 175.296875 17.960938 175.171875 18.183594 175.035156 18.40625 C 173.277344 21.261719 171.484375 24.101562 169.734375 26.960938 C 169.386719 27.035156 168.742188 27.0625 168.410156 26.953125 C 166.585938 23.996094 164.742188 21.054688 162.917969 18.097656 C 162.84375 17.980469 162.753906 17.875 162.652344 17.78125 C 162.671875 21.929688 162.65625 26.078125 162.664062 30.226562 L 162.597656 30.335938 C 161.4375 30.335938 160.273438 30.347656 159.113281 30.332031 C 159.101562 23.199219 159.109375 16.050781 159.113281 8.914062 Z M 159.113281 8.914062 "/>
<path style=" stroke:none;fill-rule:nonzero;fill:rgb(100%,100%,100%);fill-opacity:1;" d="M 182.984375 8.875 C 184.320312 8.875 185.660156 8.871094 186.996094 8.875 C 187.019531 14.742188 186.988281 20.617188 187.011719 26.484375 C 190.652344 26.488281 194.300781 26.480469 197.941406 26.488281 C 197.957031 27.769531 197.957031 29.054688 197.941406 30.335938 C 192.972656 30.339844 187.996094 30.339844 183.027344 30.335938 L 182.984375 30.191406 C 182.992188 23.089844 182.984375 15.976562 182.984375 8.875 Z M 182.984375 8.875 "/>
<path style=" stroke:none;fill-rule:nonzero;fill:rgb(100%,100%,100%);fill-opacity:1;" d="M 37.921875 9.566406 C 37.925781 12.148438 37.925781 14.734375 37.921875 17.320312 L 37.824219 17.445312 C 33.933594 19.449219 29.363281 19.960938 25.113281 18.945312 C 20.835938 17.933594 17.050781 15.3125 14.496094 11.738281 C 15.445312 12.082031 16.261719 12.851562 17.246094 13.171875 C 18.28125 13.738281 19.457031 14.085938 20.585938 14.398438 C 21.878906 14.714844 23.265625 14.910156 24.59375 14.941406 C 29.578125 15.042969 34.390625 13.078125 37.921875 9.566406 Z M 37.921875 9.566406 "/>
<path style=" stroke:none;fill-rule:nonzero;fill:rgb(100%,100%,100%);fill-opacity:1;" d="M 2.292969 10.507812 C 7.964844 10.554688 13.652344 13.566406 16.796875 18.308594 C 16.074219 17.914062 15.414062 17.410156 14.667969 17.054688 C 10.890625 15.089844 6.445312 14.484375 2.292969 15.453125 C 2.28125 13.808594 2.28125 12.15625 2.292969 10.507812 Z M 2.292969 10.507812 "/>
<path style=" stroke:none;fill-rule:nonzero;fill:rgb(100%,100%,100%);fill-opacity:1;" d="M 78.511719 14.539062 C 77.296875 14.542969 76.046875 14.484375 74.839844 14.566406 C 74.855469 15.199219 74.8125 15.824219 74.878906 16.449219 C 73.429688 14.910156 71.484375 13.992188 69.339844 14.171875 C 67.328125 14.21875 65.347656 15.117188 64.003906 16.621094 C 61.152344 19.804688 61.277344 25.253906 64.1875 28.355469 C 66.53125 30.890625 70.761719 31.523438 73.632812 29.527344 C 74.101562 29.25 74.410156 28.800781 74.855469 28.507812 C 74.886719 29.074219 74.761719 29.8125 74.910156 30.335938 C 76.097656 30.335938 77.285156 30.34375 78.472656 30.335938 L 78.515625 30.1875 C 78.507812 24.976562 78.515625 19.75 78.511719 14.539062 Z M 73.011719 26.347656 C 71.507812 27.457031 69.285156 27.472656 67.757812 26.402344 C 65.480469 24.835938 65.117188 21.351562 66.863281 19.253906 C 68.441406 17.296875 71.636719 17.128906 73.433594 18.863281 C 74.304688 19.648438 74.832031 20.824219 74.910156 21.992188 C 75.078125 23.617188 74.359375 25.390625 73.011719 26.347656 Z M 73.011719 26.347656 "/>
<path style=" stroke:none;fill-rule:nonzero;fill:rgb(100%,100%,100%);fill-opacity:1;" d="M 122.082031 17.722656 C 121.074219 15.976562 119.320312 14.773438 117.359375 14.359375 C 115.152344 13.90625 112.6875 14.167969 110.761719 15.394531 C 108.941406 16.542969 107.710938 18.457031 107.324219 20.5625 C 106.871094 23.011719 107.289062 25.71875 108.855469 27.710938 C 109.910156 29.117188 111.46875 30 113.160156 30.398438 C 116.390625 31.136719 119.878906 30.398438 122.582031 28.5 C 122.0625 27.585938 121.5625 26.65625 121.039062 25.738281 C 119.375 26.792969 117.476562 27.421875 115.492188 27.363281 C 114.300781 27.300781 113.03125 26.886719 112.214844 25.980469 C 111.601562 25.371094 111.308594 24.617188 111.054688 23.804688 C 115.046875 23.804688 119.054688 23.8125 123.042969 23.800781 C 123.324219 21.699219 123.144531 19.597656 122.082031 17.722656 Z M 111.058594 20.886719 C 111.265625 20.128906 111.566406 19.425781 112.082031 18.824219 C 113.425781 17.191406 116.03125 16.914062 117.75 18.09375 C 118.625 18.746094 119.28125 19.796875 119.359375 20.898438 C 116.59375 20.871094 113.824219 20.894531 111.058594 20.886719 Z M 111.058594 20.886719 "/>
<path style=" stroke:none;fill-rule:nonzero;fill:rgb(100%,100%,100%);fill-opacity:1;" d="M 138.625 16.09375 C 139.6875 17.296875 140.1875 19.011719 140.128906 20.597656 C 140.121094 23.839844 140.136719 27.089844 140.121094 30.332031 C 138.84375 30.34375 137.5625 30.34375 136.285156 30.332031 C 136.269531 27.320312 136.285156 24.304688 136.28125 21.292969 C 136.230469 20.148438 135.804688 18.929688 134.84375 18.234375 C 133.472656 17.226562 131.328125 17.511719 130.210938 18.769531 C 129.550781 19.429688 129.199219 20.410156 129.121094 21.324219 C 129.117188 24.292969 129.121094 27.261719 129.121094 30.230469 L 129.054688 30.335938 C 127.796875 30.339844 126.542969 30.34375 125.289062 30.335938 C 125.265625 25.074219 125.273438 19.800781 125.28125 14.539062 C 126.539062 14.523438 127.800781 14.527344 129.058594 14.539062 C 129.0625 15.1875 129.0625 15.832031 129.054688 16.480469 C 129.648438 15.847656 130.132812 15.21875 130.9375 14.832031 C 133.359375 13.558594 136.792969 13.972656 138.625 16.09375 Z M 138.625 16.09375 "/>
<path style=" stroke:none;fill-rule:nonzero;fill:rgb(100%,100%,100%);fill-opacity:1;" d="M 97.890625 18.863281 C 96.964844 16.644531 95.023438 14.90625 92.667969 14.359375 C 90.996094 13.996094 89.210938 14.070312 87.691406 14.921875 C 86.929688 15.304688 86.351562 15.882812 85.726562 16.449219 C 85.738281 15.8125 85.734375 15.175781 85.734375 14.539062 C 84.453125 14.527344 83.171875 14.527344 81.894531 14.539062 C 81.890625 21.453125 81.890625 28.371094 81.894531 35.285156 C 83.171875 35.296875 84.453125 35.296875 85.734375 35.285156 C 85.730469 33.019531 85.746094 30.75 85.722656 28.480469 C 86.242188 28.917969 86.691406 29.378906 87.28125 29.730469 C 89.058594 30.878906 91.457031 30.953125 93.410156 30.257812 C 95.472656 29.546875 97.128906 27.859375 97.9375 25.851562 C 98.832031 23.636719 98.824219 21.058594 97.890625 18.863281 Z M 93.109375 26.164062 C 91.320312 27.675781 88.394531 27.519531 86.847656 25.730469 C 85.382812 24.074219 85.273438 21.382812 86.527344 19.578125 C 87.066406 18.773438 87.875 18.191406 88.792969 17.894531 C 90.492188 17.371094 92.417969 17.839844 93.585938 19.199219 C 95.289062 21.167969 95.101562 24.460938 93.109375 26.164062 Z M 93.109375 26.164062 "/>
<path style=" stroke:none;fill-rule:nonzero;fill:rgb(100%,100%,100%);fill-opacity:1;" d="M 100.824219 14.539062 C 102.101562 14.527344 103.378906 14.527344 104.65625 14.539062 C 104.667969 19.761719 104.65625 25.003906 104.660156 30.226562 L 104.597656 30.335938 C 103.339844 30.339844 102.085938 30.34375 100.828125 30.335938 C 100.808594 25.074219 100.816406 19.800781 100.824219 14.539062 Z M 100.824219 14.539062 "/>
<path style=" stroke:none;fill-rule:nonzero;fill:rgb(100%,100%,100%);fill-opacity:1;" d="M 18.371094 21.050781 C 21.304688 22.394531 23.820312 24.507812 25.691406 27.132812 C 24.746094 26.746094 23.929688 26.027344 22.941406 25.679688 C 21.898438 25.144531 20.746094 24.769531 19.617188 24.460938 C 18.75 24.257812 17.875 24.097656 16.988281 24.007812 C 11.597656 23.453125 6.105469 25.441406 2.292969 29.292969 C 2.277344 26.707031 2.285156 24.125 2.289062 21.539062 C 2.429688 21.308594 2.792969 21.238281 3.023438 21.101562 C 7.792969 18.855469 13.582031 18.839844 18.371094 21.050781 Z M 18.371094 21.050781 "/>
<path style=" stroke:none;fill-rule:nonzero;fill:rgb(100%,100%,100%);fill-opacity:1;" d="M 23.40625 20.5625 C 24.320312 21.09375 25.183594 21.691406 26.164062 22.121094 C 29.800781 23.851562 33.996094 24.304688 37.917969 23.40625 C 37.929688 25.054688 37.929688 26.703125 37.917969 28.351562 C 32.261719 28.3125 26.53125 25.304688 23.40625 20.5625 Z M 23.40625 20.5625 "/>
<path style=" stroke:none;fill-rule:nonzero;fill:rgb(11.372549%,84.313725%,98.039216%);fill-opacity:1;" d="M 15.648438 23.949219 C 16.09375 23.910156 16.535156 24.03125 16.988281 24.007812 C 17.875 24.097656 18.75 24.257812 19.617188 24.460938 C 20.640625 28.753906 20.097656 33.289062 18.109375 37.222656 L 17.925781 37.277344 C 15.390625 37.269531 12.851562 37.296875 10.316406 37.261719 C 10.878906 36.507812 11.582031 35.875 12.105469 35.085938 C 14.488281 31.859375 15.625 27.941406 15.648438 23.949219 Z M 15.648438 23.949219 "/>
<path style=" stroke:none;fill-rule:nonzero;fill:rgb(63.529412%,44.705882%,96.862745%);fill-opacity:1;" d="M 22.941406 25.679688 C 23.929688 26.027344 24.746094 26.746094 25.691406 27.132812 C 27.75 30.089844 28.910156 33.566406 29.03125 37.175781 L 28.871094 37.289062 C 27.277344 37.25 25.671875 37.320312 24.082031 37.257812 C 24.699219 34.371094 24.675781 31.398438 23.894531 28.550781 C 23.648438 27.566406 23.242188 26.644531 22.941406 25.679688 Z M 22.941406 25.679688 "/>
</g>
</svg>
